<svg width="446" height="92" viewBox="0 0 446 92" fill="none" xmlns="http://www.w3.org/2000/svg">
<path d="M313.759 58.2002C319.359 58.2002 324.892 58.3669 330.358 58.7002C335.892 59.0335 341.092 59.5335 345.959 60.2002C348.625 60.5335 350.592 61.1673 351.858 62.1006C353.192 62.9672 354.092 64.4335 354.559 66.5C354.825 67.7 355.025 69.0673 355.158 70.6006C355.292 72.0671 355.325 73.6003 355.259 75.2002C355.259 76.7335 355.159 78.2674 354.959 79.8008C354.826 81.4006 354.592 82.834 354.259 84.1006C353.725 86.2338 352.858 87.7669 351.658 88.7002C350.525 89.6334 348.625 90.2333 345.959 90.5C341.026 91.0333 335.825 91.4006 330.358 91.6006C324.892 91.8672 319.359 92 313.759 92C308.159 92 302.625 91.8672 297.158 91.6006C291.692 91.4006 286.492 91.0333 281.559 90.5C278.959 90.1667 277.058 89.5339 275.858 88.6006C274.658 87.7339 273.758 86.2339 273.158 84.1006C272.825 82.834 272.558 81.4006 272.358 79.8008C272.225 78.2674 272.158 76.7335 272.158 75.2002C272.158 73.6003 272.225 72.0671 272.358 70.6006C272.492 69.0673 272.692 67.7 272.959 66.5C273.426 64.4338 274.325 62.9672 275.658 62.1006C276.992 61.1673 278.959 60.5335 281.559 60.2002C286.425 59.5335 291.592 59.0335 297.059 58.7002C302.592 58.3669 308.159 58.2002 313.759 58.2002ZM159.22 0C162.753 3.65262e-05 165.653 1.00004 167.92 3C170.253 4.99997 171.62 8.06698 172.02 12.2002C172.286 14.5335 172.486 16.9008 172.619 19.3008C172.819 21.6339 172.986 24.0336 173.119 26.5L176.02 26.2002C178.353 25.8002 180.153 27.0337 181.42 29.9004C182.677 32.7446 183.309 37.4592 183.318 44.0439C183.705 43.1805 184.111 42.3657 184.539 41.6006C185.472 39.9339 186.472 38.3002 187.539 36.7002C188.739 34.9003 189.639 33.1006 190.239 31.3008C190.839 29.4341 191.239 27.1337 191.439 24.4004C187.506 24.0671 184.639 22.9004 182.839 20.9004C181.039 18.9004 180.139 16.567 180.139 13.9004C180.139 12.5671 180.372 11.2667 180.839 10C181.306 8.73345 182.006 7.63346 182.939 6.7002C183.939 5.70044 185.172 4.9007 186.639 4.30078C188.172 3.63412 189.939 3.26686 191.939 3.2002C194.939 3.06687 197.739 3 200.339 3C203.005 2.93334 205.839 2.90039 208.839 2.90039C211.705 2.90039 214.472 2.93334 217.139 3C219.872 3 222.705 3.06687 225.639 3.2002C227.639 3.26686 229.372 3.63412 230.839 4.30078C232.306 4.90078 233.506 5.7002 234.439 6.7002C235.439 7.63339 236.172 8.73358 236.639 10C237.105 11.2667 237.339 12.5671 237.339 13.9004C237.339 16.5671 236.439 18.9004 234.639 20.9004C232.839 22.9002 230.039 24.067 226.239 24.4004C226.706 26.867 227.406 29.0338 228.339 30.9004C229.272 32.7003 230.339 34.5668 231.539 36.5C232.339 37.8333 233.139 39.2674 233.939 40.8008C234.739 42.2673 235.439 44.0672 236.039 46.2002C236.639 48.3334 237.072 50.9335 237.339 54C237.672 57.0667 237.772 60.8341 237.639 65.3008C237.439 70.2338 237.072 74.2003 236.539 77.2002C236.072 80.2 235.373 82.5335 234.439 84.2002C233.573 85.8669 232.472 86.9667 231.139 87.5C229.805 88.0999 228.239 88.4003 226.439 88.4004C224.106 88.4004 222.139 88.1339 220.539 87.6006C219.006 87.0673 217.739 85.9672 216.739 84.3008C215.806 82.7008 215.105 80.3673 214.639 77.3008C214.239 74.2341 214.039 70.2002 214.039 65.2002C214.039 61.3336 213.806 57.7337 213.339 54.4004C212.872 51.0671 212.239 48.1669 211.439 45.7002C211.24 45.0338 210.906 44.5675 210.439 44.3008C209.973 44.0341 209.539 43.9673 209.139 44.1006C208.739 44.1673 208.405 44.4009 208.139 44.8008C207.939 45.2007 207.939 45.701 208.139 46.3008C208.939 48.5674 209.605 51.4339 210.139 54.9004C210.672 58.3003 210.939 62.2336 210.939 66.7002C210.939 71.2335 210.672 74.9002 210.139 77.7002C209.672 80.5002 208.839 82.6669 207.639 84.2002C206.439 85.7334 204.873 86.7335 202.939 87.2002C201.073 87.7335 198.739 88 195.939 88C191.206 88 187.439 86.1667 184.639 82.5C181.839 78.8999 180.339 72.8667 180.139 64.4004C180.095 63.1478 180.079 61.9531 180.086 60.8164C178.984 62.1228 177.629 62.6839 176.02 62.5L173.319 62.1006C173.186 65.1005 173.019 68.1007 172.819 71.1006C172.619 74.0339 172.353 76.9671 172.02 79.9004C171.62 83.9003 170.253 86.9004 167.92 88.9004C165.653 90.9004 162.753 91.9004 159.22 91.9004C155.153 91.9004 151.92 90.7667 149.52 88.5C147.12 86.2334 146.153 82.8338 146.619 78.3008C147.952 67.5008 148.619 56.7672 148.619 46.1006C148.619 35.434 147.986 24.9338 146.72 14.6006C146.453 12.1339 146.586 10.0002 147.119 8.2002C147.652 6.33362 148.453 4.80055 149.52 3.60059C150.653 2.40059 152.053 1.50039 153.72 0.900391C155.386 0.300431 157.22 0 159.22 0ZM252.939 0C256.472 7.35416e-05 259.372 1.00032 261.639 3C263.972 4.99997 265.339 8.06695 265.739 12.2002C266.873 23.0667 267.439 34.3335 267.439 46C267.439 57.6667 266.873 68.9671 265.739 79.9004C265.339 83.9004 263.972 86.9004 261.639 88.9004C259.372 90.9002 256.473 91.9003 252.939 91.9004C250.94 91.9004 249.106 91.5999 247.439 91C245.773 90.4667 244.373 89.6333 243.239 88.5C242.106 87.3667 241.273 85.9335 240.739 84.2002C240.206 82.5337 240.072 80.5672 240.339 78.3008C241.606 67.5008 242.239 56.7672 242.239 46.1006C242.239 35.434 241.639 24.9338 240.439 14.6006C239.906 9.60058 240.839 5.93392 243.239 3.60059C245.639 1.20059 248.873 0 252.939 0ZM430.979 0C434.511 7.35416e-05 437.411 1.00032 439.678 3C442.011 4.99997 443.378 8.06695 443.778 12.2002C444.912 23.0667 445.479 34.3335 445.479 46C445.479 57.6667 444.912 68.9671 443.778 79.9004C443.378 83.9004 442.011 86.9004 439.678 88.9004C437.411 90.9002 434.512 91.9003 430.979 91.9004C428.979 91.9004 427.145 91.5999 425.479 91C423.812 90.4667 422.412 89.6333 421.278 88.5C420.145 87.3667 419.312 85.9335 418.778 84.2002C418.245 82.5337 418.111 80.5672 418.378 78.3008C419.645 67.5008 420.278 56.7672 420.278 46.1006C420.278 35.434 419.678 24.9338 418.479 14.6006C417.945 9.60058 418.878 5.93392 421.278 3.60059C423.678 1.20059 426.912 0 430.979 0ZM44.9004 53.4004C51.9667 53.4004 58.0331 53.8675 63.0996 54.8008C68.2329 55.7341 72.4335 57.1004 75.7002 58.9004C78.9668 60.6337 81.3671 62.8004 82.9004 65.4004C84.5003 67.9337 85.2998 70.834 85.2998 74.1006C85.2998 77.4338 84.6001 80.2004 83.2002 82.4004C81.8669 84.6671 79.6333 86.5004 76.5 87.9004C73.3667 89.3004 69.2 90.3004 64 90.9004C58.8668 91.5004 52.5002 91.8008 44.9004 91.8008C37.3005 91.8008 30.9002 91.5004 25.7002 90.9004C20.5669 90.3004 16.4002 89.3004 13.2002 87.9004C10.0669 86.5004 7.83333 84.6671 6.5 82.4004C5.16669 80.2004 4.50003 77.4338 4.5 74.1006C4.5 70.834 5.26651 67.9337 6.7998 65.4004C8.33314 62.8004 10.7333 60.6337 14 58.9004C17.3332 57.1004 21.5331 55.7341 26.5996 54.8008C31.6663 53.8674 37.7671 53.4004 44.9004 53.4004ZM70.5 0C74.0333 0 76.9335 0.800391 79.2002 2.40039C81.4668 3.93373 82.8331 6.40085 83.2998 9.80078C83.3664 10.2005 83.4334 10.6002 83.5 11C83.5667 11.3999 83.6335 11.8002 83.7002 12.2002L87 11.9004C89.3333 11.6337 91.1337 12.7006 92.4004 15.1006C93.146 16.4742 93.6699 18.4143 93.9766 20.9199C94.7281 18.5534 95.6416 16.4129 96.7197 14.5C98.7864 10.7669 101.553 7.90032 105.02 5.90039C108.486 3.83377 112.853 2.80083 118.119 2.80078C123.386 2.80078 127.753 3.83372 131.22 5.90039C134.686 7.90033 137.453 10.7669 139.52 14.5C141.586 18.1666 143.019 22.6668 143.819 28C144.686 33.2667 145.119 39.1339 145.119 45.6006C145.119 52.0671 144.653 57.9336 143.72 63.2002C142.786 68.4669 141.252 72.9669 139.119 76.7002C137.052 80.4335 134.286 83.3008 130.819 85.3008C127.353 87.3673 123.119 88.4004 118.119 88.4004C113.12 88.4003 108.886 87.3672 105.42 85.3008C101.953 83.3008 99.1529 80.4335 97.0195 76.7002C94.9529 72.9669 93.4529 68.4668 92.5195 63.2002C91.5862 57.9336 91.1191 52.0671 91.1191 45.6006C91.1191 43.8589 91.149 42.1605 91.207 40.5059C90.0805 41.6938 88.6784 42.1918 87 42L83.5 41.6006C83.45 41.8005 83.4187 42.0003 83.4062 42.2002L83.3945 42.6006C83.3819 42.8005 83.3498 43.0003 83.2998 43.2002C82.8331 46.5335 81.4668 49.0006 79.2002 50.6006C76.9335 52.2006 74.0333 53 70.5 53C68.5 53 66.6666 52.7674 65 52.3008C63.4002 51.8342 62.0336 51.1673 60.9004 50.3008C59.8337 49.3674 59.0333 48.2337 58.5 46.9004C58.0333 45.5004 57.9335 43.8667 58.2002 42C58.9335 36.4669 59.2998 31.3337 59.2998 26.6006C59.2998 21.8674 58.9664 16.934 58.2998 11.8008C57.6998 7.66745 58.5671 4.66745 60.9004 2.80078C63.2337 0.934139 66.4334 5.8368e-07 70.5 0ZM386.979 2.80078C392.245 2.80083 396.612 3.83377 400.078 5.90039C403.545 7.90032 406.311 10.7669 408.378 14.5C410.445 18.1666 411.878 22.6669 412.678 28C413.544 33.2667 413.979 39.1339 413.979 45.6006C413.979 52.0671 413.511 57.9336 412.578 63.2002C411.645 68.4667 410.112 72.9669 407.979 76.7002C405.912 80.4335 403.144 83.3008 399.678 85.3008C396.211 87.3672 391.978 88.4003 386.979 88.4004C381.979 88.4004 377.745 87.3673 374.278 85.3008C370.812 83.3008 368.011 80.4335 365.878 76.7002C363.811 72.9669 362.311 68.4668 361.378 63.2002C360.445 57.9336 359.979 52.0671 359.979 45.6006C359.979 39.1339 360.378 33.2667 361.178 28C362.044 22.6668 363.512 18.1666 365.578 14.5C367.645 10.7669 370.411 7.90033 373.878 5.90039C377.345 3.83372 381.712 2.80078 386.979 2.80078ZM307.559 74C307.292 73.8002 306.925 73.7672 306.459 73.9004C305.992 74.0337 305.625 74.3341 305.358 74.8008C304.759 75.6673 305.192 76.5339 306.658 77.4004C308.925 78.6004 311.292 79.2002 313.759 79.2002C316.292 79.1335 318.725 78.5337 321.059 77.4004C321.992 76.7338 322.325 75.9672 322.059 75.1006C321.925 74.7006 321.625 74.3673 321.158 74.1006C320.758 73.834 320.325 73.834 319.858 74.1006C318.058 75.1005 315.991 75.6006 313.658 75.6006C311.392 75.5339 309.358 74.9999 307.559 74ZM38.7998 71C38.4665 70.8668 38.0661 70.8667 37.5996 71C37.1331 71.1334 36.7337 71.5007 36.4004 72.1006C35.9338 73.1672 36.3331 74.0006 37.5996 74.6006C39.9329 75.8672 42.3332 76.5 44.7998 76.5C47.333 76.4333 49.7664 75.8005 52.0996 74.6006C52.4329 74.4673 52.7333 74.1669 53 73.7002C53.2666 73.2336 53.2996 72.7335 53.0996 72.2002C52.9662 71.7337 52.6667 71.4002 52.2002 71.2002C51.7336 70.9336 51.3003 70.9007 50.9004 71.1006C49.0338 72.1672 46.9668 72.7002 44.7002 72.7002C42.5002 72.7002 40.5331 72.1333 38.7998 71ZM341.358 0C344.892 0 347.792 0.800392 350.059 2.40039C352.325 3.93372 353.692 6.40078 354.158 9.80078C354.625 12.6006 354.958 15.667 355.158 19C355.358 22.2667 355.459 25.5671 355.459 28.9004C355.459 32.2337 355.358 35.5341 355.158 38.8008C354.958 42.0673 354.625 45.1005 354.158 47.9004C353.692 51.2337 352.325 53.7008 350.059 55.3008C347.792 56.9007 344.892 57.7002 341.358 57.7002C337.292 57.7002 334.092 56.8 331.759 55C329.426 53.2 328.492 50.4335 328.959 46.7002C329.759 41.1003 330.158 35.1999 330.158 29C330.158 22.7336 329.792 17.0006 329.059 11.8008C328.792 9.73412 328.892 7.96667 329.358 6.5C329.892 5.03346 330.692 3.83366 331.759 2.90039C332.892 1.90047 334.259 1.16685 335.858 0.700195C337.525 0.233546 339.358 1.53906e-05 341.358 0ZM118.549 44.5088C116.608 44.5088 114.746 45.3055 113.374 46.7246C112.002 48.1438 111.23 50.0691 111.23 52.0762C111.231 53.5464 111.983 54.658 113.008 55.3672C114.014 56.0644 115.306 56.4003 116.539 56.4004H120.559C121.792 56.4003 123.083 56.0644 124.089 55.3672C125.114 54.658 125.867 53.5475 125.867 52.0762C125.867 50.0691 125.096 48.1438 123.724 46.7246C122.351 45.3055 120.49 44.5088 118.549 44.5088ZM387.549 44.5088C385.608 44.5088 383.746 45.3055 382.374 46.7246C381.002 48.1438 380.23 50.0691 380.23 52.0762C380.23 53.5464 380.983 54.658 382.008 55.3672C383.014 56.0644 384.306 56.4003 385.539 56.4004H389.559C390.792 56.4003 392.083 56.0644 393.089 55.3672C394.114 54.658 394.867 53.5475 394.867 52.0762C394.867 50.0691 394.096 48.1438 392.724 46.7246C391.351 45.3055 389.49 44.5088 387.549 44.5088ZM294.759 1.60059C297.225 1.60059 299.626 1.66745 301.959 1.80078C304.359 1.9341 306.425 2.13377 308.158 2.40039C316.625 4.06705 321.892 8.83358 323.959 16.7002C324.426 18.2335 324.759 20.1008 324.959 22.3008C325.226 24.4339 325.358 26.667 325.358 29C325.358 31.2667 325.259 33.5341 325.059 35.8008C324.859 38.0005 324.525 39.9002 324.059 41.5C323.192 44.7 321.692 47.3008 319.559 49.3008C317.492 51.3006 315.125 52.8338 312.459 53.9004C309.859 54.9004 307.125 55.5341 304.259 55.8008C301.392 56.0008 298.792 55.9 296.459 55.5C291.726 54.6333 288.525 53.1672 286.858 51.1006C285.192 48.9673 284.525 46.6338 284.858 44.1006C285.058 42.7673 285.692 41.5007 286.759 40.3008C287.825 39.0342 289.192 37.9004 290.858 36.9004C292.525 35.8337 294.358 34.8667 296.358 34C298.425 33.0667 300.459 32.2673 302.459 31.6006C303.059 31.4006 303.458 31.1001 303.658 30.7002C303.858 30.3003 303.892 29.9339 303.759 29.6006C303.692 29.2006 303.459 28.9341 303.059 28.8008C302.659 28.6675 302.159 28.7334 301.559 29C298.959 30.2 296.459 31.0673 294.059 31.6006C291.725 32.1339 289.258 32.5002 286.658 32.7002C283.725 32.9002 281.326 32.967 279.459 32.9004C277.592 32.7671 276.092 32.4666 274.959 32C273.892 31.4667 273.159 30.767 272.759 29.9004C272.359 28.9671 272.158 27.8333 272.158 26.5C272.225 24.1002 273.326 22.5002 275.459 21.7002C277.659 20.9003 281.259 20.5 286.259 20.5H289.358C290.692 20.5 292.125 20.5339 293.658 20.6006C295.258 20.6006 296.825 20.6335 298.358 20.7002C299.892 20.7669 301.259 20.8337 302.459 20.9004C303.259 20.967 303.859 20.8003 304.259 20.4004C304.725 20.0005 304.959 19.5671 304.959 19.1006C304.959 18.634 304.758 18.2008 304.358 17.8008C303.958 17.4008 303.325 17.2003 302.459 17.2002H281.658C279.792 17.2002 278.092 17.1672 276.559 17.1006C275.092 16.9673 273.825 16.6668 272.759 16.2002C271.692 15.7335 270.859 15 270.259 14C269.726 13.0001 269.459 11.6005 269.459 9.80078C269.459 8.60083 269.758 7.63371 270.358 6.90039C271.025 6.10039 271.892 5.43372 272.959 4.90039C274.092 4.36716 275.392 3.93388 276.858 3.60059C278.325 3.20061 279.925 2.80036 281.658 2.40039C283.325 2.13372 285.292 1.93411 287.559 1.80078C289.892 1.66745 292.292 1.60059 294.759 1.60059ZM21.0996 1.5C25.3661 1.3 29.6997 1.26707 34.0996 1.40039C37.5661 1.53371 40.5664 1.90006 43.0996 2.5C45.6329 3.1 47.7337 3.93333 49.4004 5C51.067 5.99999 52.3665 7.20062 53.2998 8.60059C54.2331 9.93391 54.8669 11.4339 55.2002 13.1006C55.6002 15.1672 55.8996 17.4009 56.0996 19.8008C56.2996 22.1339 56.3335 24.5336 56.2002 27C56.1335 29.4667 55.8331 31.9008 55.2998 34.3008C54.8331 36.634 54.0337 38.8009 52.9004 40.8008C51.1671 44.134 48.1668 46.8338 43.9004 48.9004C39.7004 50.9004 34.0996 51.7008 27.0996 51.3008C20.9665 50.9674 16.4662 49.7668 13.5996 47.7002C10.7998 45.5669 9.13292 42.4998 8.59961 38.5C8.33307 36.3002 8.8331 34.1002 10.0996 31.9004C11.3663 29.7004 13.1667 27.6335 15.5 25.7002C17.8332 23.7003 20.6 21.9007 23.7998 20.3008C26.9997 18.6342 30.4331 17.3008 34.0996 16.3008C34.4996 16.1675 34.7671 15.9339 34.9004 15.6006C35.1004 15.2673 35.1333 14.9669 35 14.7002C34.9333 14.367 34.7335 14.1003 34.4004 13.9004C34.1337 13.7004 33.7665 13.6674 33.2998 13.8008C30.5 14.7341 27.6334 15.6004 24.7002 16.4004C21.7669 17.2004 18.3667 17.7673 14.5 18.1006C12.7 18.2339 10.8996 18.2669 9.09961 18.2002C7.36649 18.0669 5.8332 17.7674 4.5 17.3008C3.16667 16.8341 2.06686 16.1335 1.2002 15.2002C0.400207 14.2002 0 12.8669 0 11.2002C4.00626e-05 8.86695 0.733569 7.00055 2.2002 5.60059C3.73353 4.20059 6.4002 3.20058 10.2002 2.60059C13.2667 2.06728 16.8998 1.7 21.0996 1.5ZM109.662 40.1846C108.123 40.1848 107.049 41.62 107.049 43.1572C107.049 44.6944 108.123 46.1297 109.662 46.1299C111.201 46.1299 112.276 44.6945 112.276 43.1572C112.276 41.6199 111.201 40.1846 109.662 40.1846ZM127.436 40.1846C125.897 40.1846 124.821 41.6199 124.821 43.1572C124.821 44.6945 125.897 46.1299 127.436 46.1299C128.974 46.1297 130.049 44.6944 130.049 43.1572C130.049 41.62 128.974 40.1848 127.436 40.1846ZM378.662 40.1846C377.123 40.1848 376.049 41.62 376.049 43.1572C376.049 44.6944 377.123 46.1297 378.662 46.1299C380.201 46.1299 381.276 44.6945 381.276 43.1572C381.276 41.6199 380.201 40.1846 378.662 40.1846ZM396.436 40.1846C394.897 40.1846 393.821 41.6199 393.821 43.1572C393.821 44.6945 394.897 46.1299 396.436 46.1299C397.974 46.1297 399.049 44.6944 399.049 43.1572C399.049 41.62 397.974 40.1848 396.436 40.1846ZM115.151 36.4004C113.613 36.4004 112.537 37.8359 112.537 39.373C112.537 40.9103 113.612 42.3467 115.151 42.3467C116.69 42.3465 117.765 40.9103 117.765 39.373C117.765 37.836 116.69 36.4006 115.151 36.4004ZM121.946 36.4004C120.408 36.4006 119.333 37.836 119.333 39.373C119.333 40.9103 120.408 42.3465 121.946 42.3467C123.485 42.3467 124.561 40.9103 124.561 39.373C124.56 37.8359 123.485 36.4004 121.946 36.4004ZM384.151 36.4004C382.613 36.4004 381.537 37.8359 381.537 39.373C381.537 40.9103 382.612 42.3467 384.151 42.3467C385.69 42.3465 386.765 40.9103 386.765 39.373C386.764 37.836 385.69 36.4006 384.151 36.4004ZM390.946 36.4004C389.408 36.4006 388.333 37.836 388.333 39.373C388.333 40.9103 389.408 42.3465 390.946 42.3467C392.485 42.3467 393.561 40.9103 393.561 39.373C393.56 37.8359 392.485 36.4004 390.946 36.4004Z" fill="#48BEFF"/>
</svg>
