<svg width="24" height="24" viewBox="0 0 24 24" fill="none" xmlns="http://www.w3.org/2000/svg">
<defs>
<filter id="shadow" x="-20%" y="-20%" width="140%" height="140%">
<feDropShadow dx="2" dy="2" stdDeviation="3" flood-color="rgba(0,0,0,0.3)"/>
</filter>
</defs>
<path d="M6.25 5.5C6.25 4.078 7.278 2.75 8.75 2.75C10.222 2.75 11.25 4.078 11.25 5.5C11.25 6.922 10.222 8.25 8.75 8.25C7.278 8.25 6.25 6.922 6.25 5.5ZM1 9C1 7.578 2.028 6.25 3.5 6.25C4.972 6.25 6 7.578 6 9C6 10.422 4.972 11.75 3.5 11.75C2.028 11.75 1 10.422 1 9ZM12 10.25C10.1435 10.25 8.36301 10.9875 7.05025 12.3003C5.7375 13.613 5 15.3935 5 17.25C5 18.61 5.72 19.638 6.7 20.294C7.663 20.939 8.898 21.25 10.078 21.25H13.922C15.102 21.25 16.337 20.939 17.299 20.294C18.28 19.638 19 18.611 19 17.25C19 15.3935 18.2625 13.613 16.9497 12.3003C15.637 10.9875 13.8565 10.25 12 10.25ZM12.75 5.5C12.75 4.078 13.778 2.75 15.25 2.75C16.722 2.75 17.75 4.078 17.75 5.5C17.75 6.922 16.722 8.25 15.25 8.25C13.778 8.25 12.75 6.922 12.75 5.5ZM18 9C18 7.578 19.028 6.25 20.5 6.25C21.972 6.25 23 7.578 23 9C23 10.422 21.972 11.75 20.5 11.75C19.028 11.75 18 10.422 18 9Z" fill="#FFABBF" stroke="#424242" stroke-width="1" filter="url(#shadow)"/>
</svg>
