<svg width="24" height="24" viewBox="0 0 24 24" fill="none" xmlns="http://www.w3.org/2000/svg">
<path d="M1.33333 6.66663C2.025 6.66663 2.59167 7.19163 2.65833 7.86246L2.67083 8.13746C2.74167 8.80829 3.30833 9.33329 4 9.33329H11.4625L17.3333 11.85V22C17.3333 22.7375 16.7375 23.3333 16 23.3333H14.6667C13.9292 23.3333 13.3333 22.7375 13.3333 22V16.5291C12.3333 17.0416 11.2 17.3333 10 17.3333C8.8 17.3333 7.66667 17.0416 6.66667 16.5291V22C6.66667 22.7375 6.07083 23.3333 5.33333 23.3333H4C3.2625 23.3333 2.66667 22.7375 2.66667 22V11.7666C1.1125 11.2166 0 9.74163 0 7.99996C0 7.26246 0.595833 6.66663 1.33333 6.66663ZM14.825 0.666626C15.1458 0.666626 15.4458 0.816626 15.6417 1.07496L16.3333 1.99996H18.5042C19.0333 1.99996 19.5417 2.21246 19.9167 2.58746L20.6667 3.33329H23C23.5542 3.33329 24 3.77913 24 4.33329V5.33329C24 7.17496 22.5083 8.66663 20.6667 8.66663H18L17.7083 9.83329L12.5125 7.60829L13.8292 1.47496C13.9292 1.00413 14.3417 0.666626 14.825 0.666626ZM18.6667 3.83329C18.4457 3.83329 18.2337 3.92109 18.0774 4.07737C17.9211 4.23365 17.8333 4.44561 17.8333 4.66663C17.8333 4.88764 17.9211 5.0996 18.0774 5.25588C18.2337 5.41216 18.4457 5.49996 18.6667 5.49996C18.8877 5.49996 19.0996 5.41216 19.2559 5.25588C19.4122 5.0996 19.5 4.88764 19.5 4.66663C19.5 4.44561 19.4122 4.23365 19.2559 4.07737C19.0996 3.92109 18.8877 3.83329 18.6667 3.83329Z" fill="black"/>
</svg>
