<svg width="24" height="24" viewBox="0 0 24 24" fill="none" xmlns="http://www.w3.org/2000/svg">
<path d="M17.9999 13.7143C18.6819 13.7143 19.3359 13.9852 19.8182 14.4674C20.3004 14.9497 20.5713 15.6037 20.5713 16.2857V16.8986C20.5713 19.9646 16.9628 22.2857 11.9999 22.2857C7.03704 22.2857 3.42847 20.0854 3.42847 16.8986V16.2857C3.42847 15.6037 3.69938 14.9497 4.18162 14.4674C4.66386 13.9852 5.31791 13.7143 5.9999 13.7143H17.9999ZM11.9999 1.71429C12.6753 1.71429 13.344 1.84732 13.968 2.10577C14.5919 2.36422 15.1589 2.74304 15.6364 3.2206C16.114 3.69816 16.4928 4.26511 16.7513 4.88907C17.0097 5.51303 17.1428 6.18178 17.1428 6.85715C17.1428 7.53252 17.0097 8.20128 16.7513 8.82524C16.4928 9.4492 16.114 10.0161 15.6364 10.4937C15.1589 10.9713 14.5919 11.3501 13.968 11.6085C13.344 11.867 12.6753 12 11.9999 12C10.6359 12 9.32782 11.4582 8.36335 10.4937C7.39887 9.52923 6.85704 8.22112 6.85704 6.85715C6.85704 5.49318 7.39887 4.18508 8.36335 3.2206C9.32782 2.25613 10.6359 1.71429 11.9999 1.71429Z" fill="black"/>
</svg>
